<svg width="104" height="82" viewBox="0 0 104 82" fill="none" xmlns="http://www.w3.org/2000/svg">
<path fill-rule="evenodd" clip-rule="evenodd" d="M0 21.553L49.0647 57.4954C49.0647 57.4954 52.2445 59.3954 56.3813 58.5469C60.5183 57.6984 61.2116 54.1745 61.2116 54.1745L72.8587 6.48239L48.3336 11.5125L39.9385 45.2965L20.5906 31.266L24.3031 16.3257L0 21.553V21.553ZM73.4433 25.1813L65.8753 55.6366C65.8753 55.6366 65.3449 60.3416 56.076 62.3385L82.7713 81.4612L98.3374 20.0759L73.4433 25.1813V25.1813ZM78.3217 5.29372L74.445 20.8939L99.6693 15.7204L103.576 0L78.3217 5.29372V5.29372Z" fill="url(#paint0_linear_448_18)"/>
<defs>
<linearGradient id="paint0_linear_448_18" x1="51.7879" y1="0" x2="51.7879" y2="81.4612" gradientUnits="userSpaceOnUse">
<stop stop-color="#5543BC"/>
<stop offset="1" stop-color="#3B2C9A"/>
</linearGradient>
</defs>
</svg>
