<svg width="100" height="100" viewBox="0 0 100 100" fill="none" xmlns="http://www.w3.org/2000/svg">
<rect width="100" height="100" rx="16" fill="#242938"/>
<path d="M42.525 71.256C44.913 72.0953 47.4323 72.4994 49.963 72.449C52.4938 72.4991 55.013 72.0947 57.401 71.255C59.265 70.528 59.926 69.72 59.926 69.255V65.7C59.2743 66.1364 58.5752 66.4974 57.842 66.776C55.3154 67.6807 52.6463 68.1217 49.963 68.078C47.2799 68.1209 44.6111 67.6806 42.084 66.778C41.3505 66.4993 40.6512 66.1376 40 65.7V69.25C40 69.724 40.663 70.528 42.525 71.256ZM42.525 77.961C43.3686 78.2827 44.2385 78.5306 45.125 78.702C46.719 79.0103 48.3394 79.162 49.963 79.155C51.5865 79.1624 53.2069 79.011 54.801 78.703C55.6875 78.5316 56.5574 78.2837 57.401 77.962C59.265 77.235 59.926 76.427 59.926 75.962V72.572C59.3873 72.8961 58.8211 73.1722 58.234 73.397C55.5798 74.3367 52.7782 74.7916 49.963 74.74C47.1475 74.79 44.3459 74.3334 41.692 73.392C41.1051 73.1666 40.539 72.8905 40 72.567V75.96C40 76.426 40.663 77.231 42.525 77.961ZM49.963 86C55.463 86 59.926 84.256 59.926 82.106V79.269C59.4359 79.5644 58.9226 79.8192 58.391 80.031L58.234 80.094C55.5803 81.0365 52.7787 81.4941 49.963 81.445C47.1472 81.4955 44.3454 81.0379 41.692 80.094C41.638 80.074 41.586 80.051 41.535 80.031C41.0034 79.8192 40.49 79.5644 40 79.269V82.106C40 84.256 44.463 86 49.963 86Z" fill="#FFDA44"/>
<path d="M49.963 65.788C55.4654 65.788 59.926 64.0446 59.926 61.894C59.926 59.7434 55.4654 58 49.963 58C44.4606 58 40 59.7434 40 61.894C40 64.0446 44.4606 65.788 49.963 65.788Z" fill="#FFDA44"/>
<path d="M32.632 44.24C31.32 44.24 30.064 44.056 28.864 43.688C27.664 43.304 26.712 42.816 26.008 42.224L27.088 39.8C27.76 40.328 28.592 40.768 29.584 41.12C30.576 41.472 31.592 41.648 32.632 41.648C33.512 41.648 34.224 41.552 34.768 41.36C35.312 41.168 35.712 40.912 35.968 40.592C36.224 40.256 36.352 39.88 36.352 39.464C36.352 38.952 36.168 38.544 35.8 38.24C35.432 37.92 34.952 37.672 34.36 37.496C33.784 37.304 33.136 37.128 32.416 36.968C31.712 36.808 31 36.624 30.28 36.416C29.576 36.192 28.928 35.912 28.336 35.576C27.76 35.224 27.288 34.76 26.92 34.184C26.552 33.608 26.368 32.872 26.368 31.976C26.368 31.064 26.608 30.232 27.088 29.48C27.584 28.712 28.328 28.104 29.32 27.656C30.328 27.192 31.6 26.96 33.136 26.96C34.144 26.96 35.144 27.088 36.136 27.344C37.128 27.6 37.992 27.968 38.728 28.448L37.744 30.872C36.992 30.424 36.216 30.096 35.416 29.888C34.616 29.664 33.848 29.552 33.112 29.552C32.248 29.552 31.544 29.656 31 29.864C30.472 30.072 30.08 30.344 29.824 30.68C29.584 31.016 29.464 31.4 29.464 31.832C29.464 32.344 29.64 32.76 29.992 33.08C30.36 33.384 30.832 33.624 31.408 33.8C32 33.976 32.656 34.152 33.376 34.328C34.096 34.488 34.808 34.672 35.512 34.88C36.232 35.088 36.88 35.36 37.456 35.696C38.048 36.032 38.52 36.488 38.872 37.064C39.24 37.64 39.424 38.368 39.424 39.248C39.424 40.144 39.176 40.976 38.68 41.744C38.2 42.496 37.456 43.104 36.448 43.568C35.44 44.016 34.168 44.24 32.632 44.24ZM50.3897 44.24C49.0777 44.24 47.8697 44.024 46.7657 43.592C45.6617 43.16 44.7017 42.56 43.8857 41.792C43.0697 41.008 42.4377 40.096 41.9897 39.056C41.5417 38 41.3177 36.848 41.3177 35.6C41.3177 34.352 41.5417 33.208 41.9897 32.168C42.4377 31.112 43.0697 30.2 43.8857 29.432C44.7017 28.648 45.6617 28.04 46.7657 27.608C47.8697 27.176 49.0697 26.96 50.3657 26.96C51.6777 26.96 52.8777 27.176 53.9657 27.608C55.0697 28.04 56.0297 28.64 56.8457 29.408C57.6617 30.176 58.2937 31.088 58.7417 32.144C59.1897 33.2 59.4137 34.352 59.4137 35.6C59.4137 36.848 59.1897 38 58.7417 39.056C58.2937 40.112 57.6617 41.024 56.8457 41.792C56.0297 42.56 55.0697 43.16 53.9657 43.592C52.8777 44.024 51.6857 44.24 50.3897 44.24ZM55.8617 47.672C55.2697 47.672 54.6937 47.6 54.1337 47.456C53.5897 47.328 53.0457 47.104 52.5017 46.784C51.9737 46.48 51.4217 46.072 50.8457 45.56C50.2697 45.064 49.6377 44.448 48.9497 43.712L52.2617 42.848C52.7097 43.44 53.1337 43.912 53.5337 44.264C53.9497 44.632 54.3497 44.896 54.7337 45.056C55.1177 45.216 55.5177 45.296 55.9337 45.296C57.0377 45.296 57.9977 44.848 58.8137 43.952L60.2537 45.68C59.1337 47.008 57.6697 47.672 55.8617 47.672ZM50.3657 41.504C51.2137 41.504 51.9977 41.36 52.7177 41.072C53.4377 40.784 54.0617 40.376 54.5897 39.848C55.1177 39.304 55.5257 38.672 55.8137 37.952C56.1177 37.232 56.2697 36.448 56.2697 35.6C56.2697 34.736 56.1177 33.952 55.8137 33.248C55.5257 32.528 55.1177 31.904 54.5897 31.376C54.0617 30.832 53.4377 30.416 52.7177 30.128C51.9977 29.84 51.2137 29.696 50.3657 29.696C49.5177 29.696 48.7337 29.84 48.0137 30.128C47.2937 30.416 46.6697 30.832 46.1417 31.376C45.6137 31.904 45.1977 32.528 44.8937 33.248C44.6057 33.952 44.4617 34.736 44.4617 35.6C44.4617 36.448 44.6057 37.232 44.8937 37.952C45.1977 38.672 45.6137 39.304 46.1417 39.848C46.6697 40.376 47.2937 40.784 48.0137 41.072C48.7337 41.36 49.5177 41.504 50.3657 41.504ZM62.7208 44V27.2H65.8408V41.36H74.6248V44H62.7208Z" fill="white"/>
</svg>
