<svg width="100" height="100" viewBox="0 0 100 100" fill="none" xmlns="http://www.w3.org/2000/svg">
<path d="M76.5625 0H23.4375C10.4933 0 0 10.4933 0 23.4375V76.5625C0 89.5067 10.4933 100 23.4375 100H76.5625C89.5067 100 100 89.5067 100 76.5625V23.4375C100 10.4933 89.5067 0 76.5625 0Z" fill="#242938"/>
<path d="M46.8274 12.1547C48.7489 11.0551 51.2513 11.05 53.1708 12.1547C62.8278 17.6118 72.488 23.0598 82.1435 28.52C83.9599 29.543 85.1743 31.5641 85.1559 33.6567V66.4868C85.1696 68.6661 83.8349 70.7356 81.9188 71.7352C72.2935 77.1622 62.6727 82.5954 53.0489 88.0223C51.0884 89.1434 48.5356 89.0571 46.6356 87.8438C43.7501 86.1711 40.8595 84.5063 37.9735 82.8352C37.3837 82.4836 36.7188 82.204 36.3024 81.6321C36.6708 81.136 37.329 81.0743 37.8638 80.8575C39.0681 80.4743 40.1747 79.8594 41.281 79.2629C41.561 79.0715 41.9024 79.145 42.1708 79.3161C44.6384 80.7309 47.0845 82.1872 49.5602 83.5883C50.0884 83.8934 50.6231 83.4883 51.0747 83.2368C60.52 77.8981 69.977 72.5801 79.4212 67.2399C79.7712 67.0715 79.9645 66.7 79.936 66.3168C79.9427 55.4868 79.9376 44.6551 79.9395 33.8247C79.9794 33.3903 79.7278 32.9903 79.3345 32.8122C69.7427 27.4102 60.1552 22.0004 50.5649 16.5973C50.3988 16.483 50.202 16.4216 50.0004 16.4213C49.7988 16.4209 49.6017 16.4816 49.4352 16.5954C39.8446 22.0004 30.2595 27.4157 20.6688 32.8168C20.277 32.9954 20.0142 33.3887 20.0606 33.8247C20.0626 44.6551 20.0606 55.4868 20.0606 66.3184C20.044 66.5055 20.0851 66.6932 20.1784 66.8562C20.2717 67.0192 20.4128 67.1497 20.5825 67.2301C23.1415 68.6813 25.704 70.1223 28.2649 71.5688C29.7079 72.345 31.479 72.8067 33.0685 72.2118C34.4712 71.7086 35.4544 70.277 35.4278 68.7879C35.4411 58.0211 35.4212 47.2528 35.4376 36.4872C35.4024 36.0094 35.856 35.6145 36.3208 35.6598C37.5505 35.6512 38.7817 35.643 40.0114 35.6629C40.5247 35.6512 40.8778 36.1661 40.8145 36.6473C40.8095 47.4825 40.8278 58.3176 40.8063 69.1524C40.8095 72.0403 39.6231 75.1825 36.952 76.5954C33.6618 78.2997 29.5946 77.9383 26.3438 76.304C23.5298 74.8993 20.8438 73.2415 18.0798 71.7368C16.1587 70.7426 14.8306 68.6649 14.8442 66.4872V33.6567C14.8239 31.5208 16.0868 29.4629 17.9595 28.4547C27.5833 23.0239 37.2056 17.5883 46.8274 12.1547Z" fill="#81CD39"/>
<path d="M55.2234 34.8964C59.4207 34.6261 63.9141 34.7362 67.691 36.8042C70.6156 38.3886 72.2367 41.7144 72.2883 44.9632C72.2066 45.4011 71.7484 45.6429 71.3301 45.6128C70.1125 45.6112 68.8941 45.6296 67.6766 45.6046C67.1598 45.6245 66.8598 45.1483 66.7949 44.6917C66.4449 43.137 65.5969 41.5976 64.134 40.8476C61.8879 39.7233 59.284 39.78 56.8348 39.8034C55.0469 39.898 53.1242 40.053 51.6094 41.1042C50.4465 41.9007 50.0934 43.5085 50.5082 44.8034C50.8996 45.7331 51.9726 46.0331 52.8512 46.3097C57.9094 47.6327 63.2695 47.5007 68.2312 49.2417C70.2855 49.9515 72.2949 51.3315 72.998 53.4823C73.918 56.3651 73.5148 59.8105 71.4637 62.1245C69.8004 64.0288 67.3781 65.0655 64.9621 65.6284C61.748 66.3452 58.4125 66.3636 55.1484 66.0452C52.0793 65.6952 48.8852 64.889 46.516 62.798C44.4898 61.0386 43.5004 58.2972 43.5984 55.6519C43.6219 55.205 44.0668 54.8933 44.4949 54.93C45.7211 54.9202 46.9476 54.9167 48.1738 54.9319C48.6641 54.8968 49.0269 55.3202 49.0523 55.7819C49.2781 57.2628 49.8348 58.8175 51.1266 59.6952C53.6187 61.3034 56.7465 61.1933 59.6004 61.2382C61.9648 61.1335 64.6191 61.1019 66.5484 59.539C67.5664 58.6476 67.868 57.1562 67.593 55.8733C67.2949 54.7901 66.1617 54.2855 65.1887 53.9554C60.1953 52.3761 54.775 52.9491 49.8301 51.1628C47.8223 50.4534 45.8809 49.112 45.1098 47.0495C44.0336 44.1304 44.5266 40.5194 46.7926 38.2839C49.0019 36.0593 52.191 35.2026 55.2234 34.8964Z" fill="#81CD39"/>
</svg>
