<svg width="100" height="100" viewBox="0 0 100 100" fill="none" xmlns="http://www.w3.org/2000/svg">
<path d="M76.5625 0H23.4375C10.4933 0 0 10.4933 0 23.4375V76.5625C0 89.5067 10.4933 100 23.4375 100H76.5625C89.5067 100 100 89.5067 100 76.5625V23.4375C100 10.4933 89.5067 0 76.5625 0Z" fill="#242938"/>
<path d="M19.2023 39.1586H30.2992C33.5563 39.1859 35.9164 40.125 37.3797 41.9742C38.843 43.8234 39.3258 46.3492 38.8289 49.5516C38.6359 51.0148 38.2078 52.45 37.5453 53.8578C36.9102 55.2656 36.0273 56.5352 34.8953 57.6672C33.5148 59.1023 32.0383 60.0133 30.4648 60.4C28.8914 60.7867 27.2625 60.9797 25.5789 60.9797H20.6102L19.0367 68.8469H13.2812L19.2023 39.1586ZM24.0469 43.8789L21.5625 56.3008C21.7281 56.3281 21.8938 56.3422 22.0594 56.3422H22.6391C25.2891 56.3695 27.4977 56.1078 29.2641 55.5555C31.0305 54.9758 32.218 52.9609 32.825 49.5102C33.3219 46.6117 32.825 44.9414 31.3344 44.5C29.8711 44.0586 28.0359 43.8516 25.8273 43.8789C25.4961 43.9063 25.1789 43.9203 24.875 43.9203H24.0055L24.0469 43.8789ZM45.3852 31.25H51.0992L49.4844 39.1586H54.6188C57.4344 39.2141 59.532 39.7937 60.9125 40.8977C62.3203 42.0016 62.7344 44.1 62.1547 47.1914L59.3805 60.9797H53.5836L56.2336 47.8125C56.5094 46.432 56.4266 45.4523 55.9852 44.8727C55.5438 44.293 54.5914 44.0031 53.1281 44.0031L48.532 43.9617L45.1367 60.9797H39.4227L45.3852 31.25ZM68.2906 39.1586H79.3875C82.6445 39.1859 85.0047 40.125 86.468 41.9742C87.9313 43.8234 88.4141 46.3492 87.9172 49.5516C87.7242 51.0148 87.2961 52.45 86.6336 53.8578C85.9984 55.2656 85.1156 56.5352 83.9836 57.6672C82.6031 59.1023 81.1266 60.0133 79.5531 60.4C77.9797 60.7867 76.3508 60.9797 74.6672 60.9797H69.6984L68.125 68.8469H62.3695L68.2906 39.1586ZM73.1352 43.8789L70.6508 56.3008C70.8164 56.3281 70.982 56.3422 71.1477 56.3422H71.7273C74.3773 56.3695 76.5859 56.1078 78.3523 55.5555C80.1188 54.9758 81.3062 52.9609 81.9133 49.5102C82.4102 46.6117 81.9133 44.9414 80.4227 44.5C78.9594 44.0586 77.1242 43.8516 74.9156 43.8789C74.5844 43.9063 74.2672 43.9203 73.9633 43.9203H73.0937L73.1352 43.8789Z" fill="white"/>
</svg>
