<svg width="100" height="100" viewBox="0 0 100 100" fill="none" xmlns="http://www.w3.org/2000/svg">
<rect width="100" height="100" rx="16" fill="#242938"/>
<path d="M58.9411 44.0841C57.0774 44.0841 55.6895 44.9992 55.6895 47.2016C55.6895 48.8608 56.6042 50.013 58.8406 50.013C60.7362 50.013 62.0239 48.8958 62.0239 47.1326C62.0239 45.1347 60.8718 44.0841 58.9411 44.0841ZM55.215 59.6349C54.7738 60.176 54.3343 60.7514 54.3343 61.4297C54.3343 62.784 56.0611 63.1915 58.4333 63.1915C60.3979 63.1915 63.0745 63.0537 63.0745 61.2269C63.0745 60.1411 61.7868 60.0741 60.1598 59.9722L55.215 59.6349ZM65.2422 44.1864C65.8509 44.9656 66.4956 46.0501 66.4956 47.6081C66.4956 51.3682 63.5483 53.5699 59.2808 53.5699C58.1956 53.5699 57.2133 53.4347 56.6042 53.2656L55.4857 55.0604L58.8053 55.2635C64.6665 55.6371 68.1205 55.8069 68.1205 60.3105C68.1205 64.2072 64.7001 66.4079 58.8053 66.4079C52.674 66.4079 50.3364 64.8495 50.3364 62.1736C50.3364 60.6492 51.0141 59.8377 52.1998 58.7179C51.0816 58.2454 50.7094 57.3989 50.7094 56.4835C50.7094 55.7377 51.0816 55.0607 51.6923 54.4164C52.3017 53.7737 52.979 53.1294 53.7922 52.3842C52.1326 51.571 50.8785 49.8095 50.8785 47.3021C50.8785 43.4072 53.4535 40.732 58.6354 40.732C60.0926 40.732 60.9737 40.8658 61.7528 41.0706H68.3593V43.949L65.2422 44.1864ZM74.3191 38.0305C72.3878 38.0305 71.2699 36.9116 71.2699 34.98C71.2699 33.051 72.3874 31.9998 74.3191 31.9998C76.2837 31.9998 77.4019 33.051 77.4019 34.98C77.4019 36.9116 76.284 38.0305 74.3191 38.0305ZM69.9483 58.3882V55.7133L71.6765 55.4769C72.151 55.4087 72.2183 55.3074 72.2183 54.7983V44.8387C72.2183 44.4671 72.117 44.2287 71.7771 44.1281L69.9483 43.4838L70.3206 40.7406H77.3336V54.7983C77.3336 55.3411 77.3662 55.4087 77.876 55.4773L79.6036 55.7137V58.3882H69.9483ZM92.9999 57.0749C91.5428 57.7858 89.4087 58.4295 87.477 58.4295C83.4459 58.4295 81.9221 56.8052 81.9221 52.9752V44.1008C81.9221 43.8977 81.9221 43.7621 81.6501 43.7621H79.2792V40.7463C82.2611 40.4067 83.4459 38.9162 83.8185 35.2237H87.0371V40.0354C87.0371 40.2718 87.0371 40.374 87.3085 40.374H92.0845V43.7615H87.0371V51.8574C87.0371 53.8559 87.512 54.6345 89.3404 54.6345C90.2901 54.6345 91.2714 54.3981 92.0842 54.093L92.9999 57.0749Z" fill="white"/>
<path d="M42.8064 48.1853L27.3173 32.6971C27.1051 32.4849 26.8533 32.3166 26.5761 32.2018C26.2989 32.0869 26.0018 32.0278 25.7018 32.0278C25.4017 32.0278 25.1046 32.0869 24.8275 32.2018C24.5503 32.3166 24.2984 32.4849 24.0863 32.6971L20.87 35.9138L24.9501 39.9935C25.4297 39.8304 25.9453 39.8049 26.4387 39.9198C26.9321 40.0348 27.3834 40.2856 27.7415 40.6438C28.1015 41.0044 28.3529 41.4589 28.4669 41.9555C28.5809 42.4521 28.5529 42.9708 28.3861 43.4522L32.3177 47.3845C33.269 47.0568 34.3669 47.2689 35.1264 48.0298C35.379 48.2822 35.5793 48.5818 35.716 48.9116C35.8526 49.2414 35.923 49.595 35.923 49.952C35.923 50.309 35.8526 50.6625 35.716 50.9923C35.5793 51.3221 35.379 51.6218 35.1264 51.8741C34.6822 52.3188 34.0975 52.5958 33.472 52.6579C32.8464 52.7201 32.2187 52.5635 31.6956 52.2149C31.1726 51.8663 30.7865 51.3472 30.6031 50.7459C30.4197 50.1447 30.4503 49.4984 30.6897 48.9172L27.0229 45.2504L27.0226 54.9003C27.2884 55.0317 27.5312 55.2054 27.7415 55.4144C27.994 55.6669 28.1943 55.9666 28.3309 56.2965C28.4676 56.6263 28.5379 56.9799 28.5379 57.3369C28.5379 57.694 28.4676 58.0475 28.3309 58.3774C28.1943 58.7073 27.994 59.007 27.7415 59.2594C26.6793 60.3216 24.9577 60.3216 23.8972 59.2594C23.5803 58.9428 23.3466 58.5528 23.2168 58.1241C23.0871 57.6954 23.0652 57.2413 23.1533 56.8021C23.2413 56.3629 23.4365 55.9523 23.7215 55.6067C24.0065 55.2612 24.3725 54.9914 24.7869 54.8214V45.0815C24.4535 44.9454 24.151 44.7436 23.8972 44.4882C23.0927 43.6847 22.8992 42.5042 23.3114 41.5163L19.2896 37.4938L8.66939 48.1134C8.45716 48.3256 8.28882 48.5775 8.17397 48.8548C8.05911 49.1321 8 49.4292 8 49.7294C8 50.0295 8.05911 50.3267 8.17397 50.6039C8.28882 50.8812 8.45716 51.1331 8.66939 51.3453L24.1586 66.8338C24.587 67.2622 25.1681 67.5029 25.774 67.5029C26.3799 67.5029 26.961 67.2622 27.3895 66.8338L42.8064 51.4176C43.2349 50.9889 43.4756 50.4076 43.4756 49.8015C43.4756 49.1953 43.2349 48.614 42.8064 48.1853Z" fill="#DE4C36"/>
</svg>
