<svg width="100" height="100" viewBox="0 0 100 100" fill="none" xmlns="http://www.w3.org/2000/svg">
<path d="M76.5625 0H23.4375C10.4933 0 0 10.4933 0 23.4375V76.5625C0 89.5067 10.4933 100 23.4375 100H76.5625C89.5067 100 100 89.5067 100 76.5625V23.4375C100 10.4933 89.5067 0 76.5625 0Z" fill="#242938"/>
<path d="M50.0004 57.4026C54.0254 57.4026 57.2879 54.1397 57.2879 50.1151C57.2879 46.0905 54.0254 42.8276 50.0004 42.8276C45.9758 42.8276 42.7129 46.0905 42.7129 50.1151C42.7129 54.1397 45.9758 57.4026 50.0004 57.4026Z" fill="#00D8FF"/>
<path d="M50.0008 35.2981C59.7852 35.2981 68.8746 36.702 75.7281 39.0618C83.9855 41.9043 89.0625 46.2133 89.0625 50.1153C89.0625 54.1813 83.682 58.759 74.8145 61.6969C68.1105 63.918 59.2887 65.0774 50.0008 65.0774C40.4781 65.0774 31.4605 63.9891 24.6809 61.6723C16.1035 58.7407 10.9375 54.104 10.9375 50.1153C10.9375 46.245 15.7852 41.9692 23.9266 39.1309C30.8055 36.7325 40.1191 35.2981 49.9992 35.2981H50.0008Z" stroke="#00D8FF" stroke-width="8.911"/>
<path d="M37.102 42.7492C41.9903 34.2734 47.747 27.1008 53.2149 22.343C59.8024 16.6098 66.072 14.3644 69.4516 16.3133C72.9739 18.3445 74.2516 25.293 72.3669 34.4422C70.943 41.359 67.5391 49.5801 62.8989 57.6262C58.1415 65.8754 52.6942 73.1434 47.3009 77.8574C40.4763 83.823 33.8782 85.982 30.4231 83.9894C27.0704 82.0574 25.7884 75.7211 27.397 67.2504C28.7559 60.093 32.1665 51.3082 37.1005 42.7492H37.102Z" stroke="#00D8FF" stroke-width="8.911"/>
<path d="M37.1141 57.6476C32.2121 49.1812 28.8746 40.6101 27.4817 33.4969C25.8047 24.9262 26.9903 18.3734 30.3672 16.4187C33.8864 14.3812 40.5438 16.7445 47.5289 22.9469C52.8102 27.6359 58.2332 34.6894 62.8867 42.7277C67.6578 50.9691 71.2336 59.3187 72.6246 66.3453C74.3848 75.2375 72.9602 82.0316 69.5082 84.0297C66.159 85.9687 60.0297 83.916 53.4942 78.2918C47.9723 73.5402 42.0645 66.1984 37.1141 57.6476Z" stroke="#00D8FF" stroke-width="8.911"/>
</svg>
