<svg width="100" height="100" viewBox="0 0 100 100" fill="none" xmlns="http://www.w3.org/2000/svg">
<path d="M76.5625 0H23.4375C10.4933 0 0 10.4933 0 23.4375V76.5625C0 89.5067 10.4933 100 23.4375 100H76.5625C89.5067 100 100 89.5067 100 76.5625V23.4375C100 10.4933 89.5067 0 76.5625 0Z" fill="#F0DB4F"/>
<path d="M26.2938 83.5672L33.9462 78.936C35.4228 81.5536 36.7657 83.7684 39.9872 83.7684C43.0751 83.7684 45.022 82.5606 45.022 77.8622V45.9098H54.4196V77.995C54.4196 87.7282 48.7142 92.1586 40.3899 92.1586C32.8724 92.1586 28.5087 88.2653 26.2935 83.5665M59.5239 82.5602L67.1755 78.1301C69.1899 81.4196 71.8079 83.836 76.4392 83.836C80.3333 83.836 82.8161 81.8891 82.8161 79.204C82.8161 75.9821 80.2653 74.8407 75.9692 72.9618L73.6204 71.9543C66.8403 69.0684 62.3427 65.4434 62.3427 57.7911C62.3427 50.7426 67.713 45.3723 76.104 45.3723C82.0782 45.3723 86.3743 47.4536 89.4618 52.8907L82.145 57.5895C80.5337 54.7032 78.7892 53.5622 76.104 53.5622C73.3517 53.5622 71.6063 55.3075 71.6063 57.5895C71.6063 60.4086 73.3517 61.5501 77.379 63.2958L79.7282 64.3024C87.7161 67.7262 92.2138 71.2161 92.2138 79.0696C92.2138 87.5282 85.5685 92.1594 76.6407 92.1594C67.9146 92.1594 62.2759 87.9977 59.5239 82.5602Z" fill="#323330"/>
</svg>
