<svg width="44" height="44" viewBox="0 0 44 44" fill="none" xmlns="http://www.w3.org/2000/svg">
<path d="M29.464 28.8326C32.2919 28.3079 34.8579 27.398 36.8526 26.062C40.2591 23.7808 42 20.2574 42 16.7763C42 14.3342 40.9632 12.0544 39.1681 10.1233C38.1679 9.04728 41.0935 1.01862 38.4941 2.09991C35.8947 3.18119 32.0833 5.57459 30.0854 5.04638C27.9465 4.48086 25.6157 4.17016 23.1765 4.17016C21.0579 4.17016 19.0211 4.40455 17.1208 4.83672C14.3584 5.46489 11.7167 3.11964 9.0589 2.09991C6.40109 1.08017 7.85137 9.38418 7.06196 10.2574C5.34266 12.1595 4.35303 14.3905 4.35303 16.7763C4.35303 20.2574 6.45992 23.7808 9.86631 26.062C12.1355 27.5817 14.9812 28.5502 18.1649 29.0274" stroke="#4433A5" stroke-width="4" stroke-linecap="round"/>
<path d="M18.1645 29.0273C16.8015 30.3669 16.1201 31.6388 16.1201 32.8433C16.1201 34.0479 16.1201 37.1 16.1201 41.9998" stroke="#4433A5" stroke-width="4" stroke-linecap="round"/>
<path d="M29.4639 28.8328C30.7553 30.3463 31.401 31.7053 31.401 32.9098C31.401 34.1143 31.401 37.1443 31.401 42" stroke="#4433A5" stroke-width="4" stroke-linecap="round"/>
<path d="M2 29.609C3.05749 29.7245 3.84181 30.1586 4.35294 30.9115C5.11963 32.0407 7.96963 36.2299 11.206 36.2299C13.3636 36.2299 15.0017 36.2299 16.1204 36.2299" stroke="#4433A5" stroke-width="4" stroke-linecap="round"/>
</svg>
