<svg width="40" height="40" viewBox="0 0 40 40" fill="none" xmlns="http://www.w3.org/2000/svg">
<path d="M20 16.4041L14.606 20L20 23.5959L25.394 20L20 16.4041ZM29 17.596L34.394 14.0001L22 5.73821V12.9301L29 17.596ZM36 17.736L32.606 20L36 22.262V17.74V17.736ZM29 22.404L22 27.0699V34.2618L34.394 25.9999L29 22.404ZM18 12.9301V5.73821L5.606 14.0001L11 17.596L18 12.9301ZM5.606 25.9999L18 34.2618V27.0699L11 22.404L5.606 25.9999ZM7.394 20L4 17.738V22.262L7.394 20ZM2.23988e-08 14.0001C-4.92386e-05 13.6709 0.0811558 13.3468 0.23641 13.0565C0.391665 12.7663 0.616168 12.5188 0.89 12.3361L18.89 0.336294C19.2187 0.117019 19.6049 0 20 0C20.3951 0 20.7813 0.117019 21.11 0.336294L39.11 12.3361C39.3838 12.5188 39.6083 12.7663 39.7636 13.0565C39.9188 13.3468 40 13.6709 40 14.0001V25.9999C40 26.3291 39.9188 26.6532 39.7636 26.9435C39.6083 27.2337 39.3838 27.4812 39.11 27.6639L21.11 39.6637C20.7813 39.883 20.3951 40 20 40C19.6049 40 19.2187 39.883 18.89 39.6637L0.89 27.6639C0.616168 27.4812 0.391665 27.2337 0.23641 26.9435C0.0811558 26.6532 -4.92386e-05 26.3291 2.23988e-08 25.9999V14.0001Z" fill="#4433A5"/>
</svg>
