<svg width="88" height="80" viewBox="0 0 88 80" fill="none" xmlns="http://www.w3.org/2000/svg">
<rect x="1.32981" y="1.32981" width="84.798" height="65.996" rx="2.67019" stroke="#7766DD" stroke-width="2.65961"/>
<path fill-rule="evenodd" clip-rule="evenodd" d="M11.5254 22.8732L40.6659 44.3208C40.6659 44.3208 42.5545 45.4545 45.0114 44.9482C47.4685 44.4419 47.8802 42.3391 47.8802 42.3391L54.7977 13.8802L40.2317 16.8818L35.2457 37.0414L23.7546 28.6691L25.9595 19.7539L11.5254 22.8732V22.8732ZM55.1449 25.0383L50.6501 43.2115C50.6501 43.2115 50.3351 46.0192 44.8301 47.2107L60.685 58.6217L69.93 21.9918L55.1449 25.0383V25.0383ZM58.0422 13.1709L55.7398 22.4799L70.721 19.3927L73.0412 10.012L58.0422 13.1709V13.1709Z" fill="#7766DD"/>
<path d="M1.16291 74.6367C1.16291 75.2101 0.914916 75.6005 0.418935 75.8077C0.914916 76.0149 1.16291 76.4052 1.16291 76.9786V77.8532C1.16291 78.3158 1.19421 78.6218 1.25681 78.7712C1.31941 78.9254 1.40367 79.0362 1.50961 79.1037C1.61555 79.176 1.76001 79.2121 1.94299 79.2121V79.5085C1.40367 79.5085 1.04493 79.3784 0.866763 79.1182C0.780086 78.9929 0.72471 78.8363 0.700633 78.6483C0.681372 78.4652 0.671741 78.2532 0.671741 78.0122V76.9786C0.671741 76.4823 0.447827 76.1402 0 75.9522V75.6631C0.447827 75.4752 0.671741 75.133 0.671741 74.6367V73.6031C0.671741 73.367 0.681372 73.1549 0.700633 72.967C0.72471 72.7791 0.780086 72.6225 0.866763 72.4972C1.04493 72.2369 1.40367 72.1068 1.94299 72.1068V72.4032C1.60592 72.4032 1.38201 72.5333 1.27125 72.7935C1.19902 72.9766 1.16291 73.2995 1.16291 73.7621V74.6367Z" fill="#7766DD"/>
<path d="M5.77193 74.8029H6.92039V75.2945H6.60258L7.18764 77.9183L7.85938 74.8029H8.65391L9.34732 77.9327L9.93961 75.2945H9.61458V74.8029H10.7703V75.2945H10.4236L9.73737 78.417H8.9645L8.27832 75.2872L7.57768 78.417H6.76871C6.76871 78.417 6.75185 78.3399 6.71814 78.1857C6.68444 78.0267 6.6411 77.8315 6.58813 77.6002C6.53998 77.3689 6.48701 77.1184 6.42922 76.8485C6.37144 76.5787 6.31606 76.3281 6.26309 76.0968C6.21494 75.8655 6.1716 75.6751 6.13308 75.5258L6.08252 75.2945H5.77193V74.8029Z" fill="#7766DD"/>
<path d="M14.8904 75.5113C14.8904 75.0342 15.1384 74.7957 15.6344 74.7957H16.8551C17.091 74.7957 17.262 74.8415 17.3679 74.9331C17.4739 75.0246 17.5268 75.1933 17.5268 75.439V76.1112L15.4683 77.4123V77.9255H16.9562V77.5063H17.5268V77.8894C17.5268 78.0339 17.4811 78.1592 17.3896 78.2652C17.3029 78.3664 17.1561 78.417 16.949 78.417H15.4683C15.2612 78.417 15.1119 78.3664 15.0204 78.2652C14.9338 78.1592 14.8904 78.0339 14.8904 77.8894V75.5113ZM15.4683 76.8268L16.949 75.8944V75.2945H15.4683V76.8268Z" fill="#7766DD"/>
<path d="M24.0625 74.8319C24.1685 74.7644 24.2913 74.7307 24.4309 74.7307C24.5754 74.7307 24.6958 74.7837 24.7921 74.8897C24.8932 74.9957 24.9437 75.1499 24.9437 75.3523V77.7809C24.9437 77.9785 24.9124 78.1183 24.8498 78.2002C24.7343 78.3447 24.5585 78.417 24.3226 78.417H21.7873V77.9255H22.2423V73.4874H21.7873V72.9959H22.8346V75.6053L24.0625 74.8319ZM24.3659 75.2222L22.8346 76.1835V77.9255H24.3659V75.2222Z" fill="#7766DD"/>
<path d="M31.902 72.9959C32.2583 72.9959 32.5039 73.0754 32.6388 73.2344C32.7784 73.3886 32.8482 73.6248 32.8482 73.9428V77.4701C32.8482 77.8026 32.7712 78.0436 32.6171 78.193C32.463 78.3423 32.2246 78.417 31.902 78.417H29.3523V77.9255H29.8073V73.4874H29.3523V72.9959H31.902ZM32.2559 73.4874H30.3996V77.9255H32.2559V73.4874Z" fill="#7766DD"/>
<path d="M37.2508 75.5113C37.2508 75.0342 37.4988 74.7957 37.9947 74.7957H39.2154C39.4514 74.7957 39.6223 74.8415 39.7283 74.9331C39.8342 75.0246 39.8872 75.1933 39.8872 75.439V76.1112L37.8286 77.4123V77.9255H39.3165V77.5063H39.8872V77.8894C39.8872 78.0339 39.8414 78.1592 39.7499 78.2652C39.6633 78.3664 39.5164 78.417 39.3093 78.417H37.8286C37.6215 78.417 37.4723 78.3664 37.3808 78.2652C37.2941 78.1592 37.2508 78.0339 37.2508 77.8894V75.5113ZM37.8286 76.8268L39.3093 75.8944V75.2945H37.8286V76.8268Z" fill="#7766DD"/>
<path d="M46.3581 77.7809C46.3581 78.205 46.151 78.417 45.7369 78.417H43.9889V77.3256H44.4801V77.9255H45.7803V77.3256L44.5957 76.5811C44.4753 76.504 44.3718 76.4413 44.2851 76.3931C44.1984 76.345 44.1262 76.2968 44.0684 76.2486C43.9625 76.1522 43.9095 76.0221 43.9095 75.8583V75.4463C43.9095 75.2439 43.9432 75.1041 44.0106 75.027C44.1406 74.8776 44.3332 74.8029 44.5885 74.8029H46.2714V75.8872H45.7803V75.2945H44.4801V75.9016L45.708 76.6678C45.8091 76.7305 45.8982 76.7859 45.9753 76.8341C46.0571 76.8774 46.1245 76.9232 46.1775 76.9714C46.2979 77.0726 46.3581 77.1931 46.3581 77.3328V77.7809Z" fill="#7766DD"/>
<path d="M51.7425 77.9255H52.212V78.417H50.6952V77.9255H51.1502V75.2945H50.6952V74.8029H51.7425V77.9255ZM51.4464 73.473C51.5475 73.473 51.6318 73.5115 51.6992 73.5886C51.7714 73.6609 51.8075 73.75 51.8075 73.8561C51.8075 73.9573 51.7714 74.044 51.6992 74.1163C51.6318 74.1837 51.5451 74.2175 51.4392 74.2175C51.338 74.2175 51.2514 74.1837 51.1791 74.1163C51.1117 74.044 51.078 73.9573 51.078 73.8561C51.078 73.75 51.1141 73.6609 51.1863 73.5886C51.2586 73.5115 51.3453 73.473 51.4464 73.473Z" fill="#7766DD"/>
<path d="M59.1447 75.2945V79.3784C59.1447 79.5808 59.0941 79.735 58.993 79.841C58.8967 79.947 58.7258 80 58.4802 80H56.7322V79.017H57.2234V79.5012H58.5524V77.6147L57.3173 78.3953C57.2113 78.458 57.0934 78.4893 56.9634 78.4893C56.8382 78.4893 56.725 78.4411 56.6239 78.3447C56.5227 78.2435 56.4722 78.1207 56.4722 77.9761V75.439C56.4722 75.2029 56.5035 75.0487 56.5661 74.9764C56.672 74.8608 56.8454 74.8029 57.0861 74.8029H59.5998V75.2945H59.1447ZM58.5524 75.2945H57.0356V77.9833L58.5524 77.0292V75.2945Z" fill="#7766DD"/>
<path d="M66.2914 74.7307C66.667 74.7307 66.8548 74.9162 66.8548 75.2872V77.9255H67.3171V78.417H65.9231V77.9255H66.2698V75.2366L64.8324 76.1402V77.9255H65.1863V78.417H63.7923V77.9255H64.2473V75.2872H63.7923V74.8029H64.8324V75.5547L66.0314 74.8029C66.1085 74.7548 66.1951 74.7307 66.2914 74.7307Z" fill="#7766DD"/>
<path d="M71.5813 75.5113C71.5813 75.0342 71.8293 74.7957 72.3253 74.7957H73.5459C73.7819 74.7957 73.9528 74.8415 74.0588 74.9331C74.1647 75.0246 74.2177 75.1933 74.2177 75.439V76.1112L72.1591 77.4123V77.9255H73.6471V77.5063H74.2177V77.8894C74.2177 78.0339 74.1719 78.1592 74.0804 78.2652C73.9938 78.3664 73.8469 78.417 73.6398 78.417H72.1591C71.9521 78.417 71.8028 78.3664 71.7113 78.2652C71.6246 78.1592 71.5813 78.0339 71.5813 77.8894V75.5113ZM72.1591 76.8268L73.6398 75.8944V75.2945H72.1591V76.8268Z" fill="#7766DD"/>
<path d="M80.6667 74.8029C81.0423 74.8029 81.2301 74.9885 81.2301 75.3595V76.0028H80.6451V75.3017L79.5183 76.0173V77.9255H79.8722V78.417H78.4781V77.9255H78.9332V75.2872H78.4781V74.7957H79.5183V75.4318L80.4067 74.8752C80.4837 74.827 80.5704 74.8029 80.6667 74.8029Z" fill="#7766DD"/>
<path d="M86.7264 75.8077C86.2304 75.6005 85.9824 75.2101 85.9824 74.6367V73.7621C85.9824 73.2995 85.9511 72.9935 85.8885 72.8441C85.8259 72.6899 85.7416 72.5791 85.6357 72.5116C85.5298 72.4393 85.3853 72.4032 85.2023 72.4032V72.1068C85.7416 72.1068 86.1004 72.2369 86.2786 72.4972C86.3652 72.6225 86.4182 72.7791 86.4375 72.967C86.4615 73.1549 86.4736 73.367 86.4736 73.6031V74.6367C86.4736 75.133 86.6975 75.4752 87.1453 75.6631V75.9522C86.6975 76.1402 86.4736 76.4823 86.4736 76.9786V78.0122C86.4736 78.2532 86.4615 78.4652 86.4375 78.6483C86.4182 78.8363 86.3652 78.9929 86.2786 79.1182C86.1004 79.3784 85.7416 79.5085 85.2023 79.5085V79.2121C85.5394 79.2121 85.7609 79.082 85.8668 78.8218C85.9439 78.6387 85.9824 78.3158 85.9824 77.8532V76.9786C85.9824 76.4052 86.2304 76.0149 86.7264 75.8077Z" fill="#7766DD"/>
</svg>
